<?xml version="1.0" encoding="UTF-8"?><svg id="Layer_1" xmlns="http://www.w3.org/2000/svg" viewBox="0 0 320 320"><defs><style>.cls-1{fill:#07d;}.cls-2{fill:#fff;}.cls-3{fill:#f43;}.cls-4{fill:#333;}</style></defs><rect class="cls-4" width="320" height="320" rx="64" ry="64"/><g><g><path class="cls-2" d="m126.48,177.47c-9.73,0-17.61-7.89-17.61-17.61s7.89-17.61,17.61-17.61"/><path class="cls-2" d="m196.93,142.25c9.73,0,17.61,7.89,17.61,17.61s-7.89,17.61-17.61,17.61"/><rect class="cls-2" x="126.05" y="142.25" width="71.31" height="35.22"/></g><circle class="cls-2" cx="267.37" cy="159.86" r="17.61"/><circle class="cls-2" cx="52.6" cy="159.86" r="17.61"/></g><g><path class="cls-3" d="m52.56,237.57c-9.73,0-17.61-7.89-17.61-17.61s7.89-17.61,17.61-17.61"/><path class="cls-3" d="m267.01,202.34c9.73,0,17.61,7.89,17.61,17.61s-7.89,17.61-17.61,17.61"/><rect class="cls-3" x="52.13" y="202.34" width="214.85" height="35.22"/></g><path class="cls-1" d="m151.99,117.66c-9.73,0-17.61-7.89-17.61-17.61s7.89-17.61,17.61-17.61"/><path class="cls-1" d="m251.44,82.43c9.73,0,17.61,7.89,17.61,17.61s-7.89,17.61-17.61,17.61"/><rect class="cls-1" x="151.99" y="82.43" width="100" height="35.22"/></svg>