<?xml version="1.0" encoding="UTF-8"?><svg id="Layer_1" xmlns="http://www.w3.org/2000/svg" viewBox="0 0 2552.5 333.6"><defs><style>.cls-1{fill:#07d;font-size:46.51px;}.cls-1,.cls-2{font-family:ArialRoundedMTBold, 'Arial Rounded MT Bold';}.cls-3{fill:#eee;}.cls-4{fill:#fff;}.cls-2{fill:#f43;font-size:100px;}</style></defs><rect class="cls-4" x="2.5" y="13.6" width="2550" height="320"/><rect class="cls-3" y="13.6" width="50" height="320"/><rect class="cls-3" x="2000" y="13.6" width="50" height="320"/><rect class="cls-3" x="1300" y="13.6" width="50" height="320"/><rect class="cls-3" x="100" y="13.6" width="50" height="320"/><rect class="cls-3" x="200" y="13.6" width="50" height="320"/><rect class="cls-3" x="300" y="13.6" width="50" height="320"/><rect class="cls-3" x="400" y="13.6" width="50" height="320"/><rect class="cls-3" x="500" y="13.6" width="50" height="320"/><rect class="cls-3" x="600" y="13.6" width="50" height="320"/><rect class="cls-3" x="700" y="13.6" width="50" height="320"/><rect class="cls-3" x="800" y="13.6" width="50" height="320"/><rect class="cls-3" x="900" y="13.6" width="50" height="320"/><rect class="cls-3" x="1000" y="13.6" width="50" height="320"/><rect class="cls-3" x="1100" y="13.6" width="50" height="320"/><rect class="cls-3" x="1200" y="13.6" width="50" height="320"/><text/><rect class="cls-3" x="1400" y="13.6" width="50" height="320"/><rect class="cls-3" x="1500" y="13.6" width="50" height="320"/><rect class="cls-3" x="1600" y="13.6" width="50" height="320"/><rect class="cls-3" x="1700" y="13.6" width="50" height="320"/><rect class="cls-3" x="1800" y="13.6" width="50" height="320"/><rect class="cls-3" x="1900" y="13.6" width="50" height="320"/><text/><rect class="cls-3" x="2100" y="13.6" width="50" height="320"/><rect class="cls-3" x="2200" y="13.6" width="50" height="320"/><rect class="cls-3" x="2300" y="13.6" width="50" height="320"/><rect class="cls-3" x="2400" y="13.6" width="50" height="320"/><circle cx="75" cy="173.6" r="25"/><g><circle cx="175" cy="173.6" r="25"/><circle cx="275" cy="173.6" r="25"/><rect x="175" y="148.6" width="100" height="50"/></g><g><circle cx="375" cy="173.6" r="25"/><circle cx="475" cy="173.6" r="25"/><rect x="375" y="148.6" width="100" height="50"/></g><circle cx="575" cy="173.6" r="25"/><circle cx="775" cy="173.6" r="25"/><g><circle cx="875" cy="173.6" r="25"/><circle cx="975" cy="173.6" r="25"/><rect x="875" y="148.6" width="100" height="50"/></g><circle cx="1675" cy="173.6" r="25"/><circle cx="1775" cy="173.6" r="25"/><circle cx="1175" cy="173.6" r="25"/><g><circle cx="1275" cy="173.6" r="25"/><circle cx="1375" cy="173.6" r="25"/><rect x="1275" y="148.6" width="100" height="50"/></g><circle cx="1475" cy="173.6" r="25"/><circle cx="1975" cy="173.6" r="25"/><circle cx="2075" cy="173.6" r="25"/><circle cx="2175" cy="173.6" r="25"/><text class="cls-2" transform="translate(291.08 116) scale(1.02 1)"><tspan x="0" y="0">P</tspan></text><text class="cls-2" transform="translate(838.12 116) scale(1.03 1)"><tspan x="0" y="0">A</tspan></text><text class="cls-2" transform="translate(1289.25 116)"><tspan x="0" y="0">R</tspan></text><text class="cls-2" transform="translate(1709.34 116)"><tspan x="0" y="0">I</tspan></text><text class="cls-2" transform="translate(2041.22 116) scale(1.01 1)"><tspan x="0" y="0">S</tspan></text><text class="cls-1" transform="translate(2040.19 321.6) rotate(-90) scale(1.19 1)"><tspan x="0" y="0">40</tspan></text><text class="cls-1" transform="translate(90.19 305.1) rotate(-90) scale(1.19 1)"><tspan x="0" y="0">1</tspan></text><rect class="cls-3" x="2500" y="13.6" width="50" height="320"/><text class="cls-1" transform="translate(2540.19 321.6) rotate(-90) scale(1.19 1)"><tspan x="0" y="0">50</tspan></text><text class="cls-1" transform="translate(1540.19 321.6) rotate(-90) scale(1.19 1)"><tspan x="0" y="0">30</tspan></text><text class="cls-1" transform="translate(1045.19 321.6) rotate(-90) scale(1.19 1)"><tspan x="0" y="0">20</tspan></text><text class="cls-1" transform="translate(540.19 321.6) rotate(-90) scale(1.19 1)"><tspan x="0" y="0">10</tspan></text></svg>